<svg xmlns="http://www.w3.org/2000/svg" viewBox="0 0 1565 800"><defs><style>.a{fill:#f71963;}</style></defs><title>VTEX_pink_RGB</title><path class="a" d="M656.59,186.14h-374c-29,0-47.57,30.83-34,56.46L286,313.44H218.18A24.94,24.94,0,0,0,196.12,350L316.45,577.75a24.94,24.94,0,0,0,44.08,0l32.68-61.52,41,77.62c14.43,27.3,53.52,27.35,68,.08L689.67,241.17C702.92,216.22,684.84,186.14,656.59,186.14Zm-168,150.72L407.76,489a16.6,16.6,0,0,1-29.33,0l-80.05-151.5A16.6,16.6,0,0,1,313,313.13H474.33A16.15,16.15,0,0,1,488.59,336.86Z"/><path class="a" d="M1054.39,349.79h-40.91V490a4.83,4.83,0,0,1-4.82,4.82H977.11a4.83,4.83,0,0,1-4.82-4.82V349.79H931.14a4.63,4.63,0,0,1-4.82-4.58V320.41a4.63,4.63,0,0,1,4.82-4.58h123.24a4.84,4.84,0,0,1,5.06,4.58v24.81A4.84,4.84,0,0,1,1054.39,349.79Z"/><path class="a" d="M1185.72,493.81c-8.43,1.2-22.61,3.13-48.62,3.13-31.07,0-58.52-7.95-58.52-51.78v-80c0-43.83,27.7-51.54,58.76-51.54,26,0,39.95,1.93,48.38,3.13,3.37.48,4.82,1.69,4.82,4.82V344a4.83,4.83,0,0,1-4.82,4.82h-50.78c-11.32,0-15.41,3.85-15.41,16.38v21.92h64.27a4.83,4.83,0,0,1,4.82,4.82v22.88a4.83,4.83,0,0,1-4.82,4.82h-64.27v25.53c0,12.52,4.09,16.38,15.41,16.38h50.78a4.83,4.83,0,0,1,4.82,4.82v22.4C1190.54,491.88,1189.09,493.33,1185.72,493.81Z"/><path class="a" d="M1367.43,494.77h-38.29c-3.13,0-4.58-1-6.26-3.61l-33.2-52.71L1259.6,490c-1.69,2.89-3.37,4.82-6,4.82h-35.64c-2.41,0-3.61-1.45-3.61-3.13a4.47,4.47,0,0,1,.48-1.69L1267,403l-52.71-82.61a3.42,3.42,0,0,1-.48-1.45,3.47,3.47,0,0,1,3.61-3.13h38.77c2.65,0,4.58,2.41,6,4.58l30.81,48.65,29.82-48.65c1.2-2.17,3.37-4.58,6-4.58h35.64a3.47,3.47,0,0,1,3.61,3.13,3.42,3.42,0,0,1-.48,1.45l-52.45,83.12L1369.84,490a5.38,5.38,0,0,1,.72,2.41C1370.57,493.81,1369.36,494.77,1367.43,494.77Z"/><path class="a" d="M868.6,316.31a3.72,3.72,0,0,0-3.64,3L830,448.7c-.48,2.65-1.2,3.61-3.37,3.61s-2.89-1-3.37-3.61l-35-129.42a3.72,3.72,0,0,0-3.64-3H750.21a3.72,3.72,0,0,0-3.62,4.56s42.7,148.39,43.17,149.85c5.7,17.68,19.53,26.13,37.13,26.13,16.76,0,31.39-8.85,37.11-26.08.68-2,42.43-149.91,42.43-149.91a3.72,3.72,0,0,0-3.62-4.55Z"/><path class="a" d="M656.59,186.14h-374c-29,0-47.57,30.83-34,56.46L286,313.44H218.18A24.94,24.94,0,0,0,196.12,350L316.45,577.75a24.94,24.94,0,0,0,44.08,0l32.68-61.52,41,77.62c14.43,27.3,53.52,27.35,68,.08L689.67,241.17C702.92,216.22,684.84,186.14,656.59,186.14Zm-168,150.72L407.76,489a16.6,16.6,0,0,1-29.33,0l-80.05-151.5A16.6,16.6,0,0,1,313,313.13H474.33A16.15,16.15,0,0,1,488.59,336.86Z"/></svg>